<?xml version="1.0" encoding="iso-8859-1"?>
<!-- Generator: Adobe Illustrator 19.0.0, SVG Export Plug-In . SVG Version: 6.00 Build 0)  -->
<svg version="1.1" id="Layer_1" xmlns="http://www.w3.org/2000/svg" xmlns:xlink="http://www.w3.org/1999/xlink" x="0px" y="0px"
	 viewBox="0 0 512 512" style="enable-background:new 0 0 512 512;" xml:space="preserve">
<polygon style="fill:#02ACAB;" points="351.319,427.596 351.319,503.83 416.681,503.83 416.681,460.255 "/>
<g>
	<polygon style="fill:#42C8C6;" points="239.66,427.574 95.319,460.255 95.319,503.83 384,503.83 384,460.255 	"/>
	<polygon style="fill:#42C8C6;" points="256,84.426 84.426,128 85.493,160.681 384,460.255 416.681,460.255 427.574,128 	"/>
</g>
<polygon style="fill:#81E3E2;" points="393.826,160.681 384,460.255 95.319,460.255 85.493,160.681 "/>
<path style="fill:#027372;" d="M405.787,51.745h-32.681L405.787,128h32.681V84.426C438.468,66.451,423.762,51.745,405.787,51.745z"
	/>
<path style="fill:#02ACAB;" d="M405.787,84.426V128H73.532V84.426c0-17.974,14.706-32.681,32.681-32.681h266.894
	C391.081,51.745,405.787,66.451,405.787,84.426z"/>
<path d="M336.742,435.745c0.046,0,0.092,0.001,0.136,0.001c4.45,0,8.094-3.57,8.167-8.036l4.375-266.895
	c0.073-4.512-3.523-8.229-8.035-8.303c-0.046,0-0.092-0.001-0.136-0.001c-4.45,0-8.094,3.57-8.167,8.036l-4.375,266.895
	C328.634,431.953,332.231,435.671,336.742,435.745z"/>
<path d="M172.665,285.96c0.046,0,0.09,0,0.136-0.001c4.512-0.074,8.109-3.791,8.035-8.303l-1.919-117.11
	c-0.073-4.466-3.717-8.036-8.167-8.036c-0.046,0-0.09,0-0.136,0.001c-4.512,0.074-8.109,3.791-8.035,8.303l1.919,117.11
	C164.572,282.39,168.216,285.96,172.665,285.96z"/>
<path d="M173.07,302.297c-4.512,0.074-8.109,3.791-8.035,8.303l1.919,117.11c0.073,4.466,3.717,8.036,8.167,8.036
	c0.046,0,0.09,0,0.136-0.001c4.512-0.074,8.109-3.791,8.035-8.303l-1.919-117.11C181.299,305.82,177.607,302.247,173.07,302.297z"/>
<path d="M256,435.745c4.513,0,8.17-3.658,8.17-8.17V160.681c0-4.512-3.657-8.17-8.17-8.17c-4.512,0-8.17,3.658-8.17,8.17v266.894
	C247.83,432.087,251.488,435.745,256,435.745z"/>
<path d="M128,468.426h256c4.513,0,8.17-3.658,8.17-8.17c0-4.512-3.657-8.17-8.17-8.17H128c-4.512,0-8.17,3.658-8.17,8.17
	C119.83,464.767,123.488,468.426,128,468.426z"/>
<path d="M446.638,119.83V84.426c0-22.526-18.325-40.851-40.851-40.851h-92.596v-2.723C313.191,18.325,294.866,0,272.34,0H239.66
	c-22.526,0-40.851,18.325-40.851,40.851v2.723h-92.596c-22.526,0-40.851,18.325-40.851,40.851v35.404c-4.512,0-8.17,3.658-8.17,8.17
	c0,4.512,3.658,8.17,8.17,8.17h11.157l10.63,324.245v43.414c0,4.512,3.658,8.17,8.17,8.17h321.362c4.513,0,8.17-3.658,8.17-8.17
	v-43.413l10.63-324.246h11.157c4.513,0,8.17-3.658,8.17-8.17C454.809,123.488,451.152,119.83,446.638,119.83z M215.149,40.851
	c0-13.516,10.995-24.511,24.511-24.511h32.681c13.515,0,24.511,10.995,24.511,24.511v2.723h-81.702V40.851z M81.702,84.426
	c0-13.516,10.995-24.511,24.511-24.511h299.574c13.515,0,24.511,10.995,24.511,24.511v35.404H81.702V84.426z M408.515,460.015
	c-0.003,0.089-0.004,0.179-0.004,0.268v35.377H103.489V460.28c0-0.089-0.001-0.179-0.004-0.268L92.868,136.17h326.264
	L408.515,460.015z"/>
<g>
</g>
<g>
</g>
<g>
</g>
<g>
</g>
<g>
</g>
<g>
</g>
<g>
</g>
<g>
</g>
<g>
</g>
<g>
</g>
<g>
</g>
<g>
</g>
<g>
</g>
<g>
</g>
<g>
</g>
</svg>
